# xmcd
#
# Track frame offsets:
#  150
#  11022
#  32247
#  52427
#  70835
#  84495
#  100517
#  118850
#  135237
#  150602
#  166552
#  184150
#  197097
#  213695
#
# Disc length: 3013 seconds
#
# Revision: 0
# Processed by: cddbd v1.5.1PL2 Copyright (c) Steve Scherf et al.
# Submitted via: Collectorz.com_Music_Collector 6.10
#
DISCID=bd0bc30e
DTITLE=Børge "Biceps" Jensen - Easy Street
DYEAR=1998
DGENRE=Blues
TTITLE0=Up On The Hill
TTITLE1=I Hear Somebody Callin' My Name
TTITLE2=Comin Down With The Misery
TTITLE3=Bootleg Liquor and Moonshine Love
TTITLE4=Anna Lee
TTITLE5=Mr.Johnson and The Devil
TTITLE6=Weepin' Willow
TTITLE7=If Your Best Friend Is The One
TTITLE8=Easy Street
TTITLE9=Blue To Grey
TTITLE10=House Of The Risin' Sun
TTITLE11=Cat's Squirrel
TTITLE12=Workin' For The Man
TTITLE13=BJ's Automobile Blues
EXTD=
EXTT0=
EXTT1=
EXTT2=
EXTT3=
EXTT4=
EXTT5=
EXTT6=
EXTT7=
EXTT8=
EXTT9=
EXTT10=
EXTT11=
EXTT12=
EXTT13=
PLAYORDER=
